<svg xmlns="http://www.w3.org/2000/svg" xmlns:xlink="http://www.w3.org/1999/xlink" viewBox="0 0 34 31"><defs><style>.cls-1,.cls-2{fill:none;}.cls-1{clip-rule:evenodd;}.cls-3{clip-path:url(#clip-path);}.cls-4{clip-path:url(#clip-path-2);}.cls-5{fill:#1f2750;}</style><clipPath id="clip-path" transform="translate(-1285 -1186)"><path class="cls-1" d="M1291.5,1203h17.79l-5.45,6.54a1.51,1.51,0,0,0,2.32,1.92l7.5-9a1.71,1.71,0,0,0,.13-.23c0-.07.07-.12.11-.19a1.66,1.66,0,0,0,.1-.54,1.62,1.62,0,0,0-.1-.54c0-.08-.08-.12-.11-.2a2.53,2.53,0,0,0-.13-.22l-7.5-9a1.52,1.52,0,0,0-2.12-.2,1.54,1.54,0,0,0-.54,1,1.56,1.56,0,0,0,.34,1.1l5.45,6.54H1291.5a1.5,1.5,0,0,0,0,3Z"/></clipPath><clipPath id="clip-path-2" transform="translate(-1285 -1186)"><rect class="cls-2" width="1440" height="2488"/></clipPath></defs><title>Fichier 1</title><g id="Calque_2" data-name="Calque 2"><g id="Calque_1-2" data-name="Calque 1"><g class="cls-3"><g class="cls-4"><rect class="cls-5" width="34" height="31"/></g></g></g></g></svg>