<?xml version="1.0" encoding="UTF-8"?>
<svg width="15px" height="25px" viewBox="0 0 15 25" version="1.1" xmlns="http://www.w3.org/2000/svg" xmlns:xlink="http://www.w3.org/1999/xlink">
    <!-- Generator: Sketch 52.4 (67378) - http://www.bohemiancoding.com/sketch -->
    <title>Path</title>
    <desc>Created with Sketch.</desc>
    <g id="Page-1" stroke="none" stroke-width="1" fill="none" fill-rule="evenodd">
        <g id="Cocktail-page" transform="translate(-778.000000, -1423.000000)" fill="#FFFFFF">
            <g id="4----footer" transform="translate(0.000000, 1360.000000)">
                <g id="social-networks" transform="translate(640.000000, 60.000000)">
                    <g id="facebook" transform="translate(130.000000, 0.000000)">
                        <path d="M22.5454545,4.31082303 C22.5454545,3.94275616 22.2494445,3.64437901 21.8842975,3.64437901 L18.5785124,3.64437901 C15.1131457,3.47037638 12.1590414,6.15033074 11.9669421,9.64237517 L11.9669421,13.2411729 L8.66115702,13.2411729 C8.29601008,13.2411729 8,13.53955 8,13.9076169 L8,17.3731258 C8,17.7411926 8.29601008,18.0395698 8.66115702,18.0395698 L11.9669421,18.0395698 L11.9669421,26.9699196 C11.9669421,27.3379865 12.2629522,27.6363636 12.6280992,27.6363636 L16.5950413,27.6363636 C16.9601883,27.6363636 17.2561983,27.3379865 17.2561983,26.9699196 L17.2561983,18.0395698 L20.7206612,18.0395698 C21.0231332,18.0439496 21.2899754,17.8408452 21.368595,17.5464012 L22.3206612,14.0808923 C22.3739747,13.8813218 22.3324133,13.6681119 22.2081503,13.5037125 C22.0838873,13.3393132 21.890987,13.2423312 21.6859504,13.2411729 L17.2561983,13.2411729 L17.2561983,9.64237517 C17.324353,8.95873517 17.8968885,8.43933275 18.5785124,8.44277594 L21.8842975,8.44277594 C22.2494445,8.44277594 22.5454545,8.14439879 22.5454545,7.77633192 L22.5454545,4.31082303 Z" id="Path"></path>
                    </g>
                </g>
            </g>
        </g>
    </g>
</svg>