<?xml version="1.0" encoding="UTF-8"?>
<svg width="24px" height="24px" viewBox="0 0 24 24" version="1.1" xmlns="http://www.w3.org/2000/svg" xmlns:xlink="http://www.w3.org/1999/xlink">
    <!-- Generator: Sketch 52.4 (67378) - http://www.bohemiancoding.com/sketch -->
    <title>Shape</title>
    <desc>Created with Sketch.</desc>
    <g id="Page-1" stroke="none" stroke-width="1" fill="none" fill-rule="evenodd">
        <g id="Cocktail-page" transform="translate(-708.000000, -1424.000000)" fill="#FFFFFF" fill-rule="nonzero">
            <g id="4----footer" transform="translate(0.000000, 1360.000000)">
                <g id="social-networks" transform="translate(640.000000, 60.000000)">
                    <g id="icons8-instagram-filled" transform="translate(68.000000, 4.000000)">
                        <path d="M7.09090909,0 C3.18,0 0,3.18 0,7.09090909 L0,16.9090909 C0,20.82 3.18,24 7.09090909,24 L16.9090909,24 C20.82,24 24,20.82 24,16.9090909 L24,7.09090909 C24,3.18 20.82,0 16.9090909,0 L7.09090909,0 Z M18.5454545,4.36363636 C19.1454545,4.36363636 19.6363636,4.85454545 19.6363636,5.45454545 C19.6363636,6.05454545 19.1454545,6.54545455 18.5454545,6.54545455 C17.9454545,6.54545455 17.4545455,6.05454545 17.4545455,5.45454545 C17.4545455,4.85454545 17.9454545,4.36363636 18.5454545,4.36363636 Z M12,6 C15.3109091,6 18,8.68909091 18,12 C18,15.3109091 15.3109091,18 12,18 C8.68909091,18 6,15.3109091 6,12 C6,8.68909091 8.68909091,6 12,6 Z M12,7.09090909 C9.29454545,7.09090909 7.09090909,9.29454545 7.09090909,12 C7.09090909,14.7054545 9.29454545,16.9090909 12,16.9090909 C14.7054545,16.9090909 16.9090909,14.7054545 16.9090909,12 C16.9090909,9.29454545 14.7054545,7.09090909 12,7.09090909 Z" id="Shape"></path>
                    </g>
                </g>
            </g>
        </g>
    </g>
</svg>