<svg xmlns="http://www.w3.org/2000/svg" viewBox="0 0 292.98 137.93"><defs><style>.cls-1{fill:#ff0855;stroke-width:4px;}.cls-1,.cls-2,.cls-3{stroke:#0c16a6;stroke-miterlimit:10;}.cls-2,.cls-3{fill:none;}.cls-3{stroke-width:0.7px;}</style></defs><title>Fichier 3</title><g id="Calque_2" data-name="Calque 2"><g id="sprit_bleu" data-name="sprit bleu"><path class="cls-1" d="M2.27,94.46a28,28,0,0,0,10.07,1.75,39.65,39.65,0,0,0,6.9-.57,41.49,41.49,0,0,0,5.91-1.47A30.59,30.59,0,0,0,30,92.09,31.33,31.33,0,0,0,41,82.59a34.56,34.56,0,0,0,4.33-8.2,42.58,42.58,0,0,0,2.16-9c.41-3.13.69-6.31.86-9.54s.28-6.52.36-9.83.31-6.61.7-9.87a24.8,24.8,0,0,1-6.9-.94,18,18,0,0,1-5.83-2.9.76.76,0,0,1-.32-.65.55.55,0,0,1,.24-.49.86.86,0,0,1,.49-.16.66.66,0,0,1,.49.16A15.85,15.85,0,0,0,43,33.85a24.32,24.32,0,0,0,6.57.86,61.31,61.31,0,0,1,1.87-9.22,40.67,40.67,0,0,1,3.88-9.3A24.68,24.68,0,0,1,61.49,9a13.94,13.94,0,0,1,8.85-2.89,10.29,10.29,0,0,1,6.32,2.24q2.49,2.09,2.49,6.4a13.18,13.18,0,0,1-1.43,6,22.86,22.86,0,0,1-3.63,5.26,29.65,29.65,0,0,1-4.81,4.24,30,30,0,0,1-5,2.9,34.79,34.79,0,0,1-6.56,2.16,40.26,40.26,0,0,1-6.9.94q-.57,4.89-.69,9.87c-.08,3.31-.19,6.62-.33,9.91S49.4,62.5,49,65.7A44,44,0,0,1,46.68,75a36.89,36.89,0,0,1-4.48,8.53,34.26,34.26,0,0,1-7.51,7.58,36.87,36.87,0,0,1-9,4.53,38.73,38.73,0,0,1-13.3,2.08c-3.48,0-6.62-.14-10-1.59C1.91,95.47,1.9,94.63,2.27,94.46ZM54.11,21.9a43.79,43.79,0,0,0-2,6.28A62.2,62.2,0,0,0,51,34.71,33.74,33.74,0,0,0,59.94,33a33.91,33.91,0,0,0,8.6-4.16A24.59,24.59,0,0,0,75,22.6a13.8,13.8,0,0,0,2.53-8,7.47,7.47,0,0,0-.66-3.3A6,6,0,0,0,75.19,9.1a6.47,6.47,0,0,0-2.32-1.19,9.54,9.54,0,0,0-2.53-.36A14.31,14.31,0,0,0,64.63,9a16.93,16.93,0,0,0-4.53,3.31,23.46,23.46,0,0,0-3.46,4.52A37.78,37.78,0,0,0,54.11,21.9Z"/><path class="cls-1" d="M145.3,69.37a1.27,1.27,0,0,1,.16.49c0,.33-.08.52-.24.58a88.18,88.18,0,0,1-22.43,15.17,56.57,56.57,0,0,1-22.44,5.14,43.2,43.2,0,0,1-9.46-1,45.88,45.88,0,0,1-7.58-2.33,21.93,21.93,0,0,1-4.61-1.92,22.7,22.7,0,0,1-4.2-3Q63.33,101,55,113.26T41.79,130.55a7.83,7.83,0,0,1-.94,1,24,24,0,0,1-2.12,1.84A18.35,18.35,0,0,1,36,135.16a6.31,6.31,0,0,1-2.82.77A2.82,2.82,0,0,1,30.9,135a3.36,3.36,0,0,1-.77-2.29,18.79,18.79,0,0,1,1.5-6.07A81.69,81.69,0,0,1,36,117.42a171.94,171.94,0,0,1,10.77-17.34Q53,91.23,60,82.87T74.66,67a167.69,167.69,0,0,1,15-13.34c1.68-2.93,3-5.27,4-7l2.28-4a18.07,18.07,0,0,1,1.14-1.84c.22-.27.38-.4.49-.4a.86.86,0,0,1,.49.16.47.47,0,0,1,.24.47.85.85,0,0,1-.08.22c0,.14-.25.53-.61,1.19L96,45.48q-1.14,2.12-3.26,5.87a31.18,31.18,0,0,1,9.09-5.14,33.29,33.29,0,0,1,11.54-1.88,21.32,21.32,0,0,1,6.9,1,14.41,14.41,0,0,1,4.93,2.74,11,11,0,0,1,2.94,4,12.18,12.18,0,0,1,1,4.82,15.18,15.18,0,0,1-1,5.26,28.07,28.07,0,0,1-2.53,5.13,38.79,38.79,0,0,1-3.51,4.78,40.8,40.8,0,0,1-4,4.08A55.87,55.87,0,0,1,111.73,81a48.19,48.19,0,0,1-6.93,3.83,43.54,43.54,0,0,1-7.1,2.49,27.62,27.62,0,0,1-6.81.9c1.42.32,2.87.58,4.37.77a39.18,39.18,0,0,0,4.93.29,50.45,50.45,0,0,0,9.06-.9,53.91,53.91,0,0,0,10.44-3.14,77.54,77.54,0,0,0,11.7-6.08,94.73,94.73,0,0,0,12.85-9.79.69.69,0,0,1,.49-.24.51.51,0,0,1,.28.08A1.57,1.57,0,0,0,145.3,69.37ZM40.73,129.57A91.71,91.71,0,0,0,48.48,120q4.73-6.53,10.85-15.91T72.62,82.79Q79.8,70.92,87.71,57.06q-6.28,5.13-11.78,10.6T65.77,78.35q-4.65,5.22-8.32,9.83t-6.2,8.11q-4.72,6.52-8.4,12.36t-6.16,10.6a76.82,76.82,0,0,0-3.79,8.24,16.64,16.64,0,0,0-1.31,5.26,2.09,2.09,0,0,0,.37,1.19,1.45,1.45,0,0,0,1.27.52,4.4,4.4,0,0,0,2-.57,14,14,0,0,0,2.16-1.38c.71-.55,1.36-1.09,2-1.63S40.4,129.9,40.73,129.57ZM83.8,86a19.83,19.83,0,0,0,3.06.58c1,.1,2,.16,2.89.16a33.72,33.72,0,0,0,14.11-3.1A49.36,49.36,0,0,0,117.08,75a39.25,39.25,0,0,0,3.79-3.83,38.35,38.35,0,0,0,3.3-4.41A23.56,23.56,0,0,0,126.54,62a14.42,14.42,0,0,0,.9-4.93,11.63,11.63,0,0,0-.74-4,9.71,9.71,0,0,0-2.36-3.59A12.4,12.4,0,0,0,120,46.82a19,19,0,0,0-6.69-1,32.25,32.25,0,0,0-8.23.94,30.37,30.37,0,0,0-6.16,2.32A31.08,31.08,0,0,0,94.32,52q-2,1.51-3.51,2.65Q87.7,60,83.63,66.81T75.31,81.12a16.76,16.76,0,0,0,4.16,3A33.48,33.48,0,0,0,83.8,86Z"/><path class="cls-1" d="M163.49,92.78a6.77,6.77,0,0,1-4.89-2A6.65,6.65,0,0,1,157,86.18a16.6,16.6,0,0,1,2-7.1A75,75,0,0,1,163.57,71c1.8-2.72,3.64-5.32,5.55-7.79s3.45-4.56,4.65-6.24c.27-.44.51-.87.73-1.31a2.7,2.7,0,0,0,.33-1.22,1.25,1.25,0,0,0-.53-1.1,4,4,0,0,0-1.27-.57,6.91,6.91,0,0,0-1.51-.25c-.51,0-.91,0-1.18,0l-1.18-.08c-.68-.06-1.51-.16-2.49-.33a31.63,31.63,0,0,1-3.14-.69,13,13,0,0,1-3-1.18c-.21.32-.38.6-.49.81a102.73,102.73,0,0,1-8,11.83,83,83,0,0,1-9.5,10.2.72.72,0,0,1-.49.16.66.66,0,0,1-.74-.74.82.82,0,0,1,.25-.57,69.83,69.83,0,0,0,9.58-10.44q4.13-5.53,7.63-11.25c.11-.17.22-.34.32-.53a1.21,1.21,0,0,0,.17-.37,5.3,5.3,0,0,1-1.76-2.08,5.89,5.89,0,0,1-.53-2.41,4.42,4.42,0,0,1,.37-2,3.15,3.15,0,0,1,.86-1.11,2.2,2.2,0,0,1,1-.44,4.41,4.41,0,0,1,.65-.09,3,3,0,0,1,1.63.37,2.26,2.26,0,0,1,.82.9,3.12,3.12,0,0,1,.28,1c0,.32,0,.57,0,.73a11,11,0,0,1-1.38,4.65,10.65,10.65,0,0,0,2.32,1,24.91,24.91,0,0,0,2.65.65c.87.17,1.69.29,2.45.37s1.36.12,1.79.12.82,0,1.47.08a10.4,10.4,0,0,1,2,.37,4.18,4.18,0,0,1,1.71,1,2.51,2.51,0,0,1,.74,1.92A7.36,7.36,0,0,1,175,57.75q-1.31,2.16-3.3,4.85l-4.33,5.8Q165,71.49,163,74.64a44.21,44.21,0,0,0-3.3,6.15,14.18,14.18,0,0,0-1.31,5.55q0,5,6,5a19.2,19.2,0,0,0,5.14-.9A61.36,61.36,0,0,0,176.3,88Q180,86.43,184,84.3t8-4.48a.54.54,0,0,1,.85.08.74.74,0,0,1,.21.49.77.77,0,0,1-.33.65q-4.24,2.61-8.44,4.77t-8,3.71a59.58,59.58,0,0,1-7.09,2.41A22.7,22.7,0,0,1,163.49,92.78ZM158.6,44.09a1.29,1.29,0,0,0-.09.57,5.23,5.23,0,0,0,.41,1.92A2.85,2.85,0,0,0,160,48a14.78,14.78,0,0,0,.9-2.24,5.5,5.5,0,0,0,.24-1.43,2.08,2.08,0,0,0-.32-1.14,1.2,1.2,0,0,0-1.06-.49C159.14,42.76,158.76,43.22,158.6,44.09Z"/><path class="cls-1" d="M199.05,89.77a23.4,23.4,0,0,1-2.77-.17,6.44,6.44,0,0,1-2.49-.77A4.49,4.49,0,0,1,192,87.07a6,6,0,0,1-.66-3,14.55,14.55,0,0,1,1.1-5.26,40,40,0,0,1,2.78-5.67q1.67-2.86,3.55-5.55c1.25-1.79,2.39-3.43,3.42-4.89,1.47-2.12,2.92-4.14,4.37-6s2.74-3.59,3.91-5.06,2.49-3.07,4-4.81q.08-.24.57-.24a.64.64,0,0,1,.73.73,1.22,1.22,0,0,1-.16.49q-2.21,2.61-4,4.77t-3.91,5c-1.44,1.9-2.9,3.89-4.37,6q-1.45,2-3.26,4.65c-1.2,1.74-2.34,3.54-3.42,5.38A42.11,42.11,0,0,0,194,79a13.63,13.63,0,0,0-1.1,5,4.13,4.13,0,0,0,.57,2.32,3.53,3.53,0,0,0,1.47,1.27,6.92,6.92,0,0,0,2,.53,19.82,19.82,0,0,0,2.16.12,23.81,23.81,0,0,0,7.67-1.43,52.36,52.36,0,0,0,8.36-3.75,86.58,86.58,0,0,0,8.32-5.26,94.39,94.39,0,0,0,7.63-6,1.19,1.19,0,0,1,.48-.16.65.65,0,0,1,.74.73A.75.75,0,0,1,232,73q-3.66,3.11-7.7,6.12A74.9,74.9,0,0,1,216,84.46a52.23,52.23,0,0,1-8.53,3.84A25.87,25.87,0,0,1,199.05,89.77Z"/><path class="cls-1" d="M230.62,72.15c1.47-1.31,3-2.65,4.69-4l5.06-4.24c1.71-1.44,3.41-2.86,5.09-4.24s3.32-2.71,4.9-4q5.46-4.48,10.93-8.81c-.66,0-1.76,0-3.31-.08s-3.23-.13-5.05-.24l-5.35-.33Q245,46,243.5,45.88a.8.8,0,0,1-.73-.81c0-.44.25-.65.73-.65H244a7.25,7.25,0,0,1,.94.08q8.81.73,17.13,1,5.46-10.29,10-18.36t8-13.66a87.89,87.89,0,0,1,5.83-8.52C287.5,3,288.66,2,289.43,2a2.72,2.72,0,0,1,.94.25c.4.16.61.65.61,1.46a9.48,9.48,0,0,1-.41,2.57c-.27,1-.49,1.65-.65,2.08A73.37,73.37,0,0,1,284.17,20c-2.32,3.8-4.69,7.35-7.14,10.64s-4.79,6.23-7,8.81-4,4.61-5.3,6.08c1.14,0,2.27,0,3.39,0s2.21,0,3.3,0q5.79,0,11.34-.25a.65.65,0,0,1,.73.74c0,.32-.46.56-1.38.69a26.86,26.86,0,0,1-3.31.25c-1.28,0-2.57,0-3.87,0h-3.1c-1.42,0-2.82,0-4.2,0s-2.79-.07-4.2-.13c-.28.28-.49.51-.66.7s-.32.36-.48.53q-3.19,6-6,11.5t-5,9.62q-2.12,4.17-3.38,6.69t-1.35,2.61a11.55,11.55,0,0,0-.89,2.12,10,10,0,0,0-.66,2,11.06,11.06,0,0,0-.24,2.29q0,5,6.28,5a26.8,26.8,0,0,0,7.46-1.1,51.62,51.62,0,0,0,7.47-2.81,63.12,63.12,0,0,0,7-3.84q3.35-2.12,6.16-4.2c1.88-1.39,3.51-2.66,4.89-3.83l3.23-2.73a1.25,1.25,0,0,1,.48-.17.66.66,0,0,1,.74.74.78.78,0,0,1-.25.57,99.07,99.07,0,0,1-9.66,7.62,89.58,89.58,0,0,1-9.83,6,55.82,55.82,0,0,1-9.34,3.87,28.1,28.1,0,0,1-8.2,1.39c-2.66,0-4.65-.6-5.95-1.79a6.12,6.12,0,0,1-2-4.74,10.17,10.17,0,0,1,.29-2.44,17.21,17.21,0,0,1,.65-2.21c.24-.65.46-1.18.65-1.59s.31-.66.37-.77.5-1,1.34-2.61,2-3.77,3.39-6.4,3-5.66,4.81-9.06,3.64-6.89,5.55-10.48c-.06.06-.72.6-2,1.63l-4.85,3.92c-2,1.58-4.11,3.31-6.45,5.22s-4.56,3.74-6.69,5.5-4,3.35-5.58,4.73a42.27,42.27,0,0,0-3.14,2.9,1,1,0,0,1-.66.33.65.65,0,0,1-.57-.25.84.84,0,0,1-.16-.49A.94.94,0,0,1,230.62,72.15Zm34.5-29.28q1.88-2.13,5.26-6t7-8.89q3.58-5,6.89-10.65a52.55,52.55,0,0,0,5-11.37,5.3,5.3,0,0,0,.29-1.23c0-.32,0-.6,0-.81s0-.41-.16-.41q-.9,0-3.43,3.67t-6,9.42q-3.48,5.75-7.39,12.72T265.12,42.87Z"/><circle class="cls-2" cx="219.56" cy="33.95" r="6.63"/><circle class="cls-2" cx="234.22" cy="28.99" r="4.67"/><circle class="cls-3" cx="225.43" cy="19.35" r="3.85"/></g></g></svg>