<?xml version="1.0" encoding="UTF-8"?>
<svg width="24px" height="22px" viewBox="0 0 24 22" version="1.1" xmlns="http://www.w3.org/2000/svg" xmlns:xlink="http://www.w3.org/1999/xlink">
    <!-- Generator: Sketch 52.4 (67378) - http://www.bohemiancoding.com/sketch -->
    <title>Path</title>
    <desc>Created with Sketch.</desc>
    <g id="Page-1" stroke="none" stroke-width="1" fill="none" fill-rule="evenodd">
        <g id="Cocktail-page" transform="translate(-644.000000, -1425.000000)" fill="#FFFFFF">
            <g id="4----footer" transform="translate(0.000000, 1360.000000)">
                <g id="social-networks" transform="translate(640.000000, 60.000000)">
                    <g id="twitter">
                        <path d="M10.7733333,26.6666667 C14.7565418,26.7999408 18.6243614,25.3167592 21.4971965,22.5544177 C24.3700316,19.7920763 26.0036942,15.9853713 26.0266667,12 C26.9301998,10.8818826 27.6011209,9.59443942 28,8.21333333 C28.0608213,7.99043634 27.985152,7.75259743 27.8067174,7.60582065 C27.6282829,7.45904386 27.3803154,7.43066535 27.1733333,7.53333333 C26.2040655,7.99990588 25.0451687,7.79602589 24.2933333,7.02666667 C23.347678,5.99110976 22.0229889,5.38261671 20.6212691,5.33991198 C19.2195493,5.29720726 17.8602747,5.82393081 16.8533333,6.8 C15.465286,8.14425968 14.8833753,10.117696 15.32,12 C10.8533333,12.2666667 7.78666667,10.1466667 5.33333333,7.24 C5.18273306,7.06945128 4.94553304,7.00409383 4.7288334,7.07343771 C4.51213376,7.14278159 4.3569433,7.33370401 4.33333333,7.56 C3.37615512,12.8695506 5.82248737,18.2142548 10.4666667,20.96 C8.94618263,22.7037672 6.81094484,23.7928818 4.50666667,24 C4.25357321,24.0419722 4.05516839,24.2402169 4.01299181,24.4932764 C3.97081523,24.7463359 4.09419989,24.9982122 4.32,25.12 C6.32469375,26.1218225 8.53230737,26.65092 10.7733333,26.6666667" id="Path"></path>
                    </g>
                </g>
            </g>
        </g>
    </g>
</svg>